# xmcd
#
# Track frame offsets: 
#        150
#        10773
#        21568
#        33725
#        43323
#        53619
#        64851
#        79084
#        91125
#        102729
#        113940
#        126179
#        138473
#        149995
#        159750
#        169540
#        181363
#        191031
#        202212
#        215892
#        226701
#        239030
#        248444
#        261391
#        273118
#        285030
#        297171
#        308388
#        319539
#
# Disc length: 4415 seconds
#
# Revision: 0
# Processed by: cddbd v1.5.2PL0 Copyright (c) Steve Scherf et al.
# Submitted via: ExactAudioCopy v1.1
#
DISCID=ac113d1d
DTITLE=George Jones - CD4_The Complete Collection 1960-62
DYEAR=2016
DGENRE=Country
TTITLE0=The New Favorites Of George Jones, 1962 - There's A Crowd
TTITLE1=The New Favorites Of George Jones, 1962 - Poor Little Rich Boy
TTITLE2=The New Favorites Of George Jones, 1962 - Root Bear
TTITLE3=The New Favorites Of George Jones, 1962 - What I Am Worth
TTITLE4=The New Favorites Of George Jones, 1962 - She Once Lived Here
TTITLE5=The New Favorites Of George Jones, 1962 - Imitation Of Love
TTITLE6=The New Favorites Of George Jones, 1962 - Open Pit Mine
TTITLE7=The New Favorites Of George Jones, 1962 - Beggar To A King
TTITLE8=The New Favorites Of George Jones, 1962 - She Thinks I Still C
TTITLE8=are
TTITLE9=The New Favorites Of George Jones, 1962 - Running Bear
TTITLE10=The New Favorites Of George Jones, 1962 - Best Guitar Picker
TTITLE11=The New Favorites Of George Jones, 1962 - Sometimes You Just 
TTITLE11=Can't Win
TTITLE12=Various Singles, 1960 - Sparkling Brown Eyes
TTITLE13=Various Singles, 1960 - Have Merci On Me
TTITLE14=Various Singles, 1960 - If You Beleave
TTITLE15=Various Singles, 1960 - Out Of Control
TTITLE16=Various Singles, 1960 - Just A Little Boy Blue
TTITLE17=Various Singles, 1960 - Candy Hearts
TTITLE18=Various Singles, 1961 - Family Bible
TTITLE19=Various Singles, 1961 - Tender Years
TTITLE20=Various Singles, 1961 - Battle Of Love
TTITLE21=Various Singles, 1961 - Did I Ever Tell You
TTITLE22=Various Singles, 1962 - Achin', Breakin' Heart
TTITLE23=Various Singles, 1962 - When My Heart Hurts No More
TTITLE24=Various Singles, 1962 - You're Still On My Mind
TTITLE25=Various Singles, 1962 - A Girl Used To Know
TTITLE26=Various Singles, 1962 - Big Fool Of The Year
TTITLE27=Various Singles, 1962 - Lonely Christmas Call
TTITLE28=Various Singles, 1962 - My Mom And Santa Claus (Twistin' Sant
TTITLE28=a Claus)
EXTD=
EXTT0=
EXTT1=
EXTT2=
EXTT3=
EXTT4=
EXTT5=
EXTT6=
EXTT7=
EXTT8=
EXTT9=
EXTT10=
EXTT11=
EXTT12=
EXTT13=
EXTT14=
EXTT15=
EXTT16=
EXTT17=
EXTT18=
EXTT19=
EXTT20=
EXTT21=
EXTT22=
EXTT23=
EXTT24=
EXTT25=
EXTT26=
EXTT27=
EXTT28=
PLAYORDER=
